<?xml version="1.0" encoding="UTF-8"?>
<!DOCTYPE svg PUBLIC "-//W3C//DTD SVG 1.1//EN" "http://www.w3.org/Graphics/SVG/1.1/DTD/svg11.dtd">
<svg xmlns="http://www.w3.org/2000/svg" version="1.1" width="128px" height="128px" style="shape-rendering:geometricPrecision; text-rendering:geometricPrecision; image-rendering:optimizeQuality; fill-rule:evenodd; clip-rule:evenodd" xmlns:xlink="http://www.w3.org/1999/xlink">
<g><path style="opacity:0.923" fill="#000000" d="M 7.5,15.5 C 13.8333,15.5 20.1667,15.5 26.5,15.5C 29.4481,26.127 32.7815,36.627 36.5,47C 57.5,47.6667 78.5,47.6667 99.5,47C 101.002,43.9953 102.002,40.8286 102.5,37.5C 106.072,37.6853 109.072,39.0186 111.5,41.5C 106,56.5 100.5,71.5 95,86.5C 92.9307,87.2638 90.764,87.7638 88.5,88C 74.1667,88.3333 59.8333,88.6667 45.5,89C 43.6627,93.6807 42.3294,98.514 41.5,103.5C 60.8333,103.5 80.1667,103.5 99.5,103.5C 99.5,106.167 99.5,108.833 99.5,111.5C 77.1642,111.667 54.8308,111.5 32.5,111C 32,110.5 31.5,110 31,109.5C 32.5187,100.087 34.6853,90.7539 37.5,81.5C 31.2935,62.2149 25.2935,42.8816 19.5,23.5C 15.5,23.5 11.5,23.5 7.5,23.5C 7.5,20.8333 7.5,18.1667 7.5,15.5 Z M 39.5,56.5 C 58.5029,56.3334 77.5029,56.5001 96.5,57C 95.3081,58.9124 94.3081,60.9124 93.5,63C 76.1571,63.833 58.8237,63.6663 41.5,62.5C 40.6279,60.5504 39.9612,58.5504 39.5,56.5 Z M 44.5,71.5 C 59.8478,71.1673 75.1811,71.5006 90.5,72.5C 89.4229,74.7294 88.7563,77.0628 88.5,79.5C 74.5,79.5 60.5,79.5 46.5,79.5C 46.0372,76.779 45.3705,74.1123 44.5,71.5 Z"/></g>
</svg>
