<?xml version="1.0" encoding="UTF-8"?>
<!DOCTYPE svg PUBLIC "-//W3C//DTD SVG 1.1//EN" "http://www.w3.org/Graphics/SVG/1.1/DTD/svg11.dtd">
<svg xmlns="http://www.w3.org/2000/svg" version="1.1" width="24px" height="24px" style="shape-rendering:geometricPrecision; text-rendering:geometricPrecision; image-rendering:optimizeQuality; fill-rule:evenodd; clip-rule:evenodd" xmlns:xlink="http://www.w3.org/1999/xlink">
<g><path style="opacity:0.593" fill="#000000" d="M 0.5,0.5 C 2.14387,0.286495 3.64387,0.619828 5,1.5C 6.37169,4.6175 7.53836,7.78417 8.5,11C 12.5104,11.3568 16.5104,11.1901 20.5,10.5C 20.5,8.83333 20.5,7.16667 20.5,5.5C 16.1667,5.5 11.8333,5.5 7.5,5.5C 7.5,4.5 7.5,3.5 7.5,2.5C 12.5,2.5 17.5,2.5 22.5,2.5C 22.5,5.83333 22.5,9.16667 22.5,12.5C 17.1726,13.285 11.8392,14.1184 6.5,15C 10.8711,15.1725 15.2044,15.6725 19.5,16.5C 14.2079,17.4948 8.8746,17.8282 3.5,17.5C 3.32051,15.0459 3.98718,12.8792 5.5,11C 4.66635,6.94423 2.99968,3.44423 0.5,0.5 Z"/></g>
<g><path style="opacity:0.456" fill="#000000" d="M 6.5,18.5 C 7.5,18.5 8.5,18.5 9.5,18.5C 9.5,19.8333 9.5,21.1667 9.5,22.5C 6.04643,22.7332 5.04643,21.3999 6.5,18.5 Z"/></g>
<g><path style="opacity:0.401" fill="#000000" d="M 15.5,18.5 C 16.8333,18.5 18.1667,18.5 19.5,18.5C 19.5,19.8333 19.5,21.1667 19.5,22.5C 18.1667,22.5 16.8333,22.5 15.5,22.5C 15.5,21.1667 15.5,19.8333 15.5,18.5 Z"/></g>
</svg>
