<?xml version="1.0" encoding="UTF-8"?>
<!DOCTYPE svg PUBLIC "-//W3C//DTD SVG 1.1//EN" "http://www.w3.org/Graphics/SVG/1.1/DTD/svg11.dtd">
<svg xmlns="http://www.w3.org/2000/svg" version="1.1" width="24px" height="24px" style="shape-rendering:geometricPrecision; text-rendering:geometricPrecision; image-rendering:optimizeQuality; fill-rule:evenodd; clip-rule:evenodd" xmlns:xlink="http://www.w3.org/1999/xlink">
<g><path style="opacity:0.578" fill="#000000" d="M 11.5,23.5 C 10.8333,23.5 10.1667,23.5 9.5,23.5C 6.5,19.8333 3.16667,16.5 -0.5,13.5C -0.5,12.8333 -0.5,12.1667 -0.5,11.5C 3.2976,8.20392 6.96427,4.70392 10.5,1C 14.4862,0.501152 18.4862,0.334485 22.5,0.5C 22.6655,4.51383 22.4988,8.51383 22,12.5C 18.2961,16.0357 14.7961,19.7024 11.5,23.5 Z M 19.5,2.5 C 20.6378,5.30354 20.8045,8.30354 20,11.5C 17,14.5 14,17.5 11,20.5C 8.31675,17.9841 5.81675,15.3174 3.5,12.5C 6.19887,8.96677 9.36553,5.96677 13,3.5C 13.5,3.66667 14,3.83333 14.5,4C 11.5,8 12.5,10 17.5,10C 20.1667,8 20.1667,6 17.5,4C 18.4158,3.72158 19.0825,3.22158 19.5,2.5 Z"/></g>
</svg>
