<?xml version="1.0" encoding="UTF-8"?>
<!DOCTYPE svg PUBLIC "-//W3C//DTD SVG 1.1//EN" "http://www.w3.org/Graphics/SVG/1.1/DTD/svg11.dtd">
<svg xmlns="http://www.w3.org/2000/svg" version="1.1" width="20px" height="20px" style="shape-rendering:geometricPrecision; text-rendering:geometricPrecision; image-rendering:optimizeQuality; fill-rule:evenodd; clip-rule:evenodd" xmlns:xlink="http://www.w3.org/1999/xlink">
<g><path style="opacity:0.564" fill="#000000" d="M 9.5,19.5 C 8.83333,19.5 8.16667,19.5 7.5,19.5C 5.16667,16.5 2.5,13.8333 -0.5,11.5C -0.5,10.8333 -0.5,10.1667 -0.5,9.5C 2.63064,6.87121 5.63064,4.03787 8.5,1C 11.8168,0.501655 15.1501,0.334989 18.5,0.5C 18.665,3.8499 18.4983,7.18323 18,10.5C 14.9621,13.3694 12.1288,16.3694 9.5,19.5 Z M 9.5,2.5 C 11.924,2.19244 14.2573,2.52577 16.5,3.5C 15.0909,3.65414 13.4242,3.82081 11.5,4C 9.93718,6.47631 10.6038,7.97631 13.5,8.5C 14.6473,8.18223 15.4806,7.51556 16,6.5C 16.1667,7 16.3333,7.5 16.5,8C 14.3851,11.1185 11.8851,13.9518 9,16.5C 6.83333,14.3333 4.66667,12.1667 2.5,10C 5.03856,7.63029 7.3719,5.13029 9.5,2.5 Z"/></g>
</svg>
